:SAMPLES-PER-SECOND 30
:FULLY-SPECIFIED
:DEGREES
488
root  -31.8371 31.7124 11.8551 -167.615 -29.8403 175.366
RightUpLeg  10.832 4.27994 -27.794
RightLeg  32.0923 -32.3056 -20.0121
RightFoot  -15.5771 0.575251 18.2694
RightToes  -5.8209e-011 0 -3.6325e-017
Spine  51.2706 2.42555 26.4664
Spine1  -11.3703 17.5334 -22.7576
HEad  -61.9615 -54.6287 32.1366
LeftShoulder1  2.57233 -8.13191 -15.3008
LeftArm  2.71759 27.7147 -52.882
LeftForeArm  21.2901 -8.82819 -14.6153
LeftHand  -1.2108 -3.02897 16.8547
RightShoulder  -0.0488189 -6.65774 -7.70799
RightArm  -104.803 81.3616 5.44594
RightForeArm  -63.3616 52.7211 17.7126
RightHand  -2.92096 3.85123 -35.8077
LeftUpLeg  -64.3028 6.76098 1.63391
LeftLeg  54.1796 -7.72856 -10.8725
LeftFoot  1.05829 1.43824 -13.2539
LeftToes  -3.91115e-011 -2.2622e-010 9.51032e-012
489
root  -32.1046 32.2187 11.7802 -166.65 -29.1032 175.686
RightUpLeg  10.0836 5.44839 -27.483
RightLeg  28.4762 -26.9673 -15.086
RightFoot  -14.4334 0.472591 20.9197
RightToes  -5.8209e-011 0 -3.6325e-017
Spine  49.1579 2.483 25.3624
Spine1  -9.13081 16.7964 -22.2323
HEad  -61.5971 -53.4756 32.7771
LeftShoulder1  2.52182 -8.15352 -14.7798
LeftArm  23.678 24.7452 -56.0167
LeftForeArm  -0.344687 -20.9231 -7.89703
LeftHand  -1.26213 -2.98703 17.6364
RightShoulder  0.0217054 -3.09485 -5.40599
RightArm  -68.9896 76.784 33.6888
RightForeArm  -64.2018 53.3628 18.1211
RightHand  -3.0831 4.38498 -35.7465
LeftUpLeg  -63.4538 5.70541 2.52624
LeftLeg  51.8504 -7.17408 -9.24141
LeftFoot  0.920243 1.52234 -14.1691
LeftToes  -3.91115e-011 -2.2622e-010 9.51032e-012
490
root  -32.2216 32.7788 11.6444 -165.97 -29.6687 176.039
RightUpLeg  9.22436 4.66232 -26.3078
RightLeg  27.9511 -22.242 -12.4492
RightFoot  -13.2583 0.276574 21.6651
RightToes  -5.8209e-011 0 -3.6325e-017
Spine  45.7725 2.03797 24.9019
Spine1  -6.1615 15.6465 -21.2022
HEad  -60.8739 -52.0249 32.8663
LeftShoulder1  2.3917 -7.78357 -14.2932
LeftArm  22.2879 20.358 -57.4095
LeftForeArm  -0.955255 -28.1316 -5.74971
LeftHand  -1.32818 -2.85075 18.8156
RightShoulder  0.277811 0.126395 -1.00037
RightArm  -46.8809 70.6246 50.6992
RightForeArm  -59.6301 55.0352 19.1989
RightHand  -3.19529 4.97198 -34.9961
LeftUpLeg  -62.0544 2.78328 4.51667
LeftLeg  48.7403 -6.46069 -7.40268
LeftFoot  1.05764 1.71728 -15.778
LeftToes  -3.91115e-011 -2.2622e-010 9.51032e-012
491
root  -32.126 33.4336 11.5642 -165.692 -27.527 177.04
RightUpLeg  5.35137 2.69223 -25.7808
RightLeg  29.5839 -17.2737 -10.5521
RightFoot  -13.4781 0.322307 21.9458
RightToes  -5.8209e-011 0 -3.6325e-017
Spine  43.7194 3.37311 23.1495
Spine1  -4.87992 15.6282 -19.4095
HEad  -59.0224 -50.2662 31.6832
LeftShoulder1  2.18352 -6.95645 -13.9478
LeftArm  15.6056 15.1017 -58.6794
LeftForeArm  4.35026 -34.1647 -7.38045
LeftHand  -1.49515 -2.87849 21.0404
RightShoulder  0.748358 2.40837 4.83763
RightArm  -32.9747 62.9504 58.1772
RightForeArm  -53.5118 57.3799 20.8936
RightHand  -2.84329 4.58763 -32.4636
LeftUpLeg  -59.9858 2.88061 6.82962
LeftLeg  44.9326 -5.74443 -5.69884
LeftFoot  1.64526 2.06171 -18.0682
LeftToes  -3.91115e-011 -2.2622e-010 9.51032e-012
492
root  -32.0204 34.0724 11.4752 -167.109 -25.5519 178.368
RightUpLeg  3.46245 -1.13417 -25.095
RightLeg  29.8953 -13.6133 -8.54657
RightFoot  -14.515 0.535964 22.653
RightToes  -5.8209e-011 0 -3.6325e-017
Spine  41.6472 4.04868 21.8877
Spine1  -2.87691 15.2435 -16.6
HEad  -55.7899 -48.2214 28.9773
LeftShoulder1  1.92739 -5.86002 -13.6254
LeftArm  10.9548 10.6042 -59.8855
LeftForeArm  7.82971 -40.2097 -8.97562
LeftHand  -1.64708 -3.00391 22.7884
RightShoulder  1.26167 3.81394 10.0208
RightArm  -21.5498 53.1949 61.5258
RightForeArm  -46.7757 60.782 23.8064
RightHand  -2.32837 3.72189 -29.3208
LeftUpLeg  -56.3583 3.22017 9.28837
LeftLeg  41.4595 -5.08247 -4.39827
LeftFoot  2.205 2.4332 -20.4143
LeftToes  -3.91115e-011 -2.2622e-010 9.51032e-012
